<svg width="50" height="50" viewBox="0 0 50 50" fill="none" xmlns="http://www.w3.org/2000/svg">
<rect width="50" height="50" rx="10" fill="url(#paint0_linear)" fill-opacity="0.2"/>
<path d="M25.0001 38C24.1564 38 23.4532 37.7188 22.8907 37.1562C22.2814 36.5938 22.0001 35.8438 22.0001 35H28.0001C28.0001 35.8438 27.672 36.5938 27.1095 37.1562C26.5001 37.7188 25.797 38 25.0001 38ZM35.0782 30.9688C35.3595 31.2969 35.5001 31.6719 35.5001 32.0469C35.5001 32.4219 35.3595 32.7969 35.0782 33.0781C34.797 33.3594 34.422 33.5 34.0001 33.5H16.0001C15.5314 33.5 15.2032 33.3594 14.922 33.0781C14.6407 32.7969 14.5001 32.4219 14.5001 32.0469C14.5001 31.6719 14.6407 31.2969 14.922 30.9688L15.0626 30.7812C15.7657 30.0312 16.2814 29.3281 16.6564 28.5781C17.2189 27.3594 17.5001 25.7188 17.5001 23.75C17.5001 21.9688 18.0626 20.375 19.1876 19.0156C20.3126 17.7031 21.7189 16.8594 23.5001 16.4844V15.5C23.5001 15.125 23.6407 14.75 23.922 14.4688C24.2032 14.1875 24.5782 14 25.0001 14C25.3751 14 25.7501 14.1875 26.0314 14.4688C26.3126 14.75 26.5001 15.125 26.5001 15.5V16.4844C28.2345 16.8594 29.6876 17.7031 30.8126 19.0156C31.9376 20.375 32.5001 21.9688 32.5001 23.75C32.5001 25.7188 32.7814 27.3594 33.3439 28.5781C33.672 29.3281 34.1876 30.0312 34.9376 30.7812C34.9845 30.875 35.0314 30.9688 35.0782 30.9688Z" fill="url(#paint1_linear)"/>
<defs>
<linearGradient id="paint0_linear" x1="7.61834" y1="2.64053e-05" x2="50.3861" y2="1.46943" gradientUnits="userSpaceOnUse">
<stop stop-color="#FFC7A7"/>
<stop offset="1" stop-color="#FFD579"/>
</linearGradient>
<linearGradient id="paint1_linear" x1="17.6998" y1="14" x2="35.6673" y2="14.5402" gradientUnits="userSpaceOnUse">
<stop stop-color="#F8A170"/>
<stop offset="1" stop-color="#FFCD61"/>
</linearGradient>
</defs>
</svg>
