<svg width="57" height="52" viewBox="0 0 57 52" fill="none" xmlns="http://www.w3.org/2000/svg">
<rect x="4" y="1" width="50" height="50" rx="10" fill="url(#paint0_linear)" fill-opacity="0.2"/>
<g filter="url(#filter0_d)">
<path d="M37.8752 28.6719C37.8752 28.4844 37.7815 28.3438 37.6877 28.2032L28.8752 20.9844C28.7346 20.8907 28.594 20.8438 28.5002 20.8438C28.3596 20.8438 28.219 20.8907 28.1252 20.9844L19.3127 28.2032C19.1721 28.3438 19.1252 28.4844 19.1252 28.6719V35.3751C19.1252 35.7032 19.219 35.9844 19.4534 36.1719C19.6409 36.4063 19.9221 36.5001 20.2502 36.5001H25.6877C25.8284 36.5001 25.969 36.4532 26.0627 36.3594C26.1565 36.2657 26.2502 36.1251 26.2502 35.9376V30.6876C26.2502 30.5469 26.2971 30.4063 26.3909 30.3126C26.4846 30.2188 26.6252 30.1251 26.8127 30.1251H30.1877C30.3284 30.1251 30.469 30.2188 30.5627 30.3126C30.6565 30.4063 30.7502 30.5469 30.7502 30.6876V35.9376C30.7502 36.1251 30.7971 36.2657 30.8909 36.3594C30.9846 36.4532 31.1252 36.5001 31.3127 36.5001H36.7502C37.0315 36.5001 37.3127 36.4063 37.5471 36.1719C37.7346 35.9844 37.8752 35.7032 37.8752 35.3751V28.6719ZM41.8127 25.8126C41.9065 25.9063 41.9534 26.0469 41.9534 26.1876C41.9534 26.3751 41.9534 26.5157 41.8596 26.6094L40.6877 28.0626C40.594 28.2032 40.4534 28.2501 40.3127 28.2501C40.1252 28.2501 39.9846 28.2032 39.8909 28.1094L28.8752 19.0626C28.7346 18.9688 28.594 18.9219 28.5002 18.9219C28.3596 18.9219 28.219 18.9688 28.1252 19.0626L17.1096 28.1094C16.969 28.2032 16.8284 28.2501 16.6877 28.2501C16.5002 28.2501 16.4065 28.2032 16.3127 28.0626L15.1409 26.6094C15.0471 26.5157 15.0002 26.3751 15.0002 26.1876C15.0002 26.0469 15.094 25.9063 15.1877 25.8126L27.094 16.0157C27.469 15.6876 27.9377 15.5001 28.5002 15.5001C29.0159 15.5001 29.4846 15.6876 29.9534 16.0157L34.1252 19.4844V16.0626C34.1252 15.9219 34.1721 15.7813 34.2659 15.6876C34.3596 15.5938 34.5002 15.5001 34.6877 15.5001H37.3127C37.4534 15.5001 37.594 15.5938 37.6877 15.6876C37.7815 15.7813 37.8752 15.9219 37.8752 16.0626V22.5782L41.8127 25.8126Z" fill="url(#paint1_linear)"/>
</g>
<defs>
<filter id="filter0_d" x="0.000244141" y="0.500061" width="56.9531" height="51" filterUnits="userSpaceOnUse" color-interpolation-filters="sRGB">
<feFlood flood-opacity="0" result="BackgroundImageFix"/>
<feColorMatrix in="SourceAlpha" type="matrix" values="0 0 0 0 0 0 0 0 0 0 0 0 0 0 0 0 0 0 127 0"/>
<feOffset/>
<feGaussianBlur stdDeviation="7.5"/>
<feColorMatrix type="matrix" values="0 0 0 0 1 0 0 0 0 1 0 0 0 0 1 0 0 0 1 0"/>
<feBlend mode="normal" in2="BackgroundImageFix" result="effect1_dropShadow"/>
<feBlend mode="normal" in="SourceGraphic" in2="effect1_dropShadow" result="shape"/>
</filter>
<linearGradient id="paint0_linear" x1="11.6183" y1="1.00003" x2="54.3861" y2="2.46943" gradientUnits="userSpaceOnUse">
<stop stop-color="#FFC7A7"/>
<stop offset="1" stop-color="#FFD579"/>
</linearGradient>
<linearGradient id="paint1_linear" x1="6.5" y1="9.50001" x2="54.1683" y2="10.2451" gradientUnits="userSpaceOnUse">
<stop stop-color="#F8A170"/>
<stop offset="1" stop-color="#FFCD61"/>
</linearGradient>
</defs>
</svg>
