<svg width="50" height="50" viewBox="0 0 50 50" fill="none" xmlns="http://www.w3.org/2000/svg">
<rect width="50" height="50" rx="10" fill="url(#paint0_linear)" fill-opacity="0.2"/>
<path d="M37.672 34.7656C37.8595 35 38.0001 35.2812 38.0001 35.5625C38.0001 35.8906 37.8595 36.1719 37.672 36.3594L36.3595 37.6719C36.1251 37.9062 35.8439 38 35.5626 38C35.2345 38 34.9532 37.9062 34.7657 37.6719L30.0782 32.9844C29.8439 32.7969 29.7501 32.5156 29.7501 32.1875V31.4375C27.9689 32.8438 26.0001 33.5 23.7501 33.5C21.9689 33.5 20.3282 33.0781 18.8282 32.1875C17.3282 31.3438 16.1564 30.1719 15.3126 28.6719C14.422 27.1719 14.0001 25.5312 14.0001 23.75C14.0001 21.9688 14.422 20.375 15.3126 18.875C16.1564 17.375 17.3282 16.2031 18.8282 15.3125C20.3282 14.4688 21.9689 14 23.7501 14C25.5314 14 27.1251 14.4688 28.6251 15.3125C30.1251 16.2031 31.297 17.375 32.1876 18.875C33.0314 20.375 33.5001 21.9688 33.5001 23.75C33.5001 26 32.797 28.0156 31.4376 29.75H32.1876C32.4689 29.75 32.7501 29.8906 32.9845 30.0781L37.672 34.7656ZM23.7501 29.75C24.8282 29.75 25.8126 29.5156 26.7501 28.9531C27.6876 28.4375 28.3907 27.7344 28.9532 26.7969C29.4689 25.8594 29.7501 24.875 29.7501 23.75C29.7501 22.6719 29.4689 21.6875 28.9532 20.75C28.3907 19.8125 27.6876 19.1094 26.7501 18.5469C25.8126 18.0312 24.8282 17.75 23.7501 17.75C22.6251 17.75 21.6407 18.0312 20.7032 18.5469C19.7657 19.1094 19.0626 19.8125 18.547 20.75C17.9845 21.6875 17.7501 22.6719 17.7501 23.75C17.7501 24.875 17.9845 25.8594 18.547 26.7969C19.0626 27.7344 19.7657 28.4375 20.7032 28.9531C21.6407 29.5156 22.6251 29.75 23.7501 29.75Z" fill="url(#paint1_linear)"/>
<defs>
<linearGradient id="paint0_linear" x1="7.61834" y1="2.64053e-05" x2="50.3861" y2="1.46943" gradientUnits="userSpaceOnUse">
<stop stop-color="#FFC7A7"/>
<stop offset="1" stop-color="#FFD579"/>
</linearGradient>
<linearGradient id="paint1_linear" x1="17.6569" y1="14" x2="38.1855" y2="14.7053" gradientUnits="userSpaceOnUse">
<stop stop-color="#F8A170"/>
<stop offset="1" stop-color="#FFCD61"/>
</linearGradient>
</defs>
</svg>
