<svg width="50" height="50" viewBox="0 0 50 50" fill="none" xmlns="http://www.w3.org/2000/svg">
<path d="M25.0001 38.0001C24.1564 38.0001 23.4532 37.7188 22.8907 37.1563C22.2814 36.5938 22.0001 35.8438 22.0001 35.0001H28.0001C28.0001 35.8438 27.672 36.5938 27.1095 37.1563C26.5001 37.7188 25.797 38.0001 25.0001 38.0001ZM35.0782 30.9688C35.3595 31.2969 35.5001 31.6719 35.5001 32.0469C35.5001 32.4219 35.3595 32.7969 35.0782 33.0782C34.797 33.3594 34.422 33.5001 34.0001 33.5001H16.0001C15.5314 33.5001 15.2032 33.3594 14.922 33.0782C14.6407 32.7969 14.5001 32.4219 14.5001 32.0469C14.5001 31.6719 14.6407 31.2969 14.922 30.9688L15.0626 30.7813C15.7657 30.0313 16.2814 29.3282 16.6564 28.5782C17.2189 27.3594 17.5001 25.7188 17.5001 23.7501C17.5001 21.9688 18.0626 20.3751 19.1876 19.0157C20.3126 17.7032 21.7189 16.8594 23.5001 16.4844V15.5001C23.5001 15.1251 23.6407 14.7501 23.922 14.4688C24.2032 14.1876 24.5782 14.0001 25.0001 14.0001C25.3751 14.0001 25.7501 14.1876 26.0314 14.4688C26.3126 14.7501 26.5001 15.1251 26.5001 15.5001V16.4844C28.2345 16.8594 29.6876 17.7032 30.8126 19.0157C31.9376 20.3751 32.5001 21.9688 32.5001 23.7501C32.5001 25.7188 32.7814 27.3594 33.3439 28.5782C33.672 29.3282 34.1876 30.0313 34.9376 30.7813C34.9845 30.8751 35.0314 30.9688 35.0782 30.9688Z" fill="#DFDEDE"/>
</svg>
