<svg width="50" height="50" viewBox="0 0 50 50" fill="none" xmlns="http://www.w3.org/2000/svg">
<path d="M37.672 34.7657C37.8595 35.0001 38.0001 35.2813 38.0001 35.5626C38.0001 35.8907 37.8595 36.1719 37.672 36.3594L36.3595 37.6719C36.1251 37.9063 35.8439 38.0001 35.5626 38.0001C35.2345 38.0001 34.9532 37.9063 34.7657 37.6719L30.0782 32.9844C29.8439 32.7969 29.7501 32.5157 29.7501 32.1876V31.4376C27.9689 32.8438 26.0001 33.5001 23.7501 33.5001C21.9689 33.5001 20.3282 33.0782 18.8282 32.1876C17.3282 31.3438 16.1564 30.1719 15.3126 28.6719C14.422 27.1719 14.0001 25.5313 14.0001 23.7501C14.0001 21.9688 14.422 20.3751 15.3126 18.8751C16.1564 17.3751 17.3282 16.2032 18.8282 15.3126C20.3282 14.4688 21.9689 14.0001 23.7501 14.0001C25.5314 14.0001 27.1251 14.4688 28.6251 15.3126C30.1251 16.2032 31.297 17.3751 32.1876 18.8751C33.0314 20.3751 33.5001 21.9688 33.5001 23.7501C33.5001 26.0001 32.797 28.0157 31.4376 29.7501H32.1876C32.4689 29.7501 32.7501 29.8907 32.9845 30.0782L37.672 34.7657ZM23.7501 29.7501C24.8282 29.7501 25.8126 29.5157 26.7501 28.9532C27.6876 28.4376 28.3907 27.7344 28.9532 26.7969C29.4689 25.8594 29.7501 24.8751 29.7501 23.7501C29.7501 22.6719 29.4689 21.6876 28.9532 20.7501C28.3907 19.8126 27.6876 19.1094 26.7501 18.5469C25.8126 18.0313 24.8282 17.7501 23.7501 17.7501C22.6251 17.7501 21.6407 18.0313 20.7032 18.5469C19.7657 19.1094 19.0626 19.8126 18.547 20.7501C17.9845 21.6876 17.7501 22.6719 17.7501 23.7501C17.7501 24.8751 17.9845 25.8594 18.547 26.7969C19.0626 27.7344 19.7657 28.4376 20.7032 28.9532C21.6407 29.5157 22.6251 29.7501 23.7501 29.7501Z" fill="#DFDEDE"/>
</svg>
