<svg width="57" height="52" viewBox="0 0 57 52" fill="none" xmlns="http://www.w3.org/2000/svg">
<g filter="url(#filter0_d)">
<path d="M37.8752 28.6719C37.8752 28.4844 37.7815 28.3438 37.6877 28.2031L28.8752 20.9844C28.7346 20.8906 28.594 20.8438 28.5002 20.8438C28.3596 20.8438 28.219 20.8906 28.1252 20.9844L19.3127 28.2031C19.1721 28.3438 19.1252 28.4844 19.1252 28.6719V35.375C19.1252 35.7031 19.219 35.9844 19.4534 36.1719C19.6409 36.4062 19.9221 36.5 20.2502 36.5H25.6877C25.8284 36.5 25.969 36.4531 26.0627 36.3594C26.1565 36.2656 26.2502 36.125 26.2502 35.9375V30.6875C26.2502 30.5469 26.2971 30.4062 26.3909 30.3125C26.4846 30.2188 26.6252 30.125 26.8127 30.125H30.1877C30.3284 30.125 30.469 30.2188 30.5627 30.3125C30.6565 30.4062 30.7502 30.5469 30.7502 30.6875V35.9375C30.7502 36.125 30.7971 36.2656 30.8909 36.3594C30.9846 36.4531 31.1252 36.5 31.3127 36.5H36.7502C37.0315 36.5 37.3127 36.4062 37.5471 36.1719C37.7346 35.9844 37.8752 35.7031 37.8752 35.375V28.6719ZM41.8127 25.8125C41.9065 25.9062 41.9534 26.0469 41.9534 26.1875C41.9534 26.375 41.9534 26.5156 41.8596 26.6094L40.6877 28.0625C40.594 28.2031 40.4534 28.25 40.3127 28.25C40.1252 28.25 39.9846 28.2031 39.8909 28.1094L28.8752 19.0625C28.7346 18.9688 28.594 18.9219 28.5002 18.9219C28.3596 18.9219 28.219 18.9688 28.1252 19.0625L17.1096 28.1094C16.969 28.2031 16.8284 28.25 16.6877 28.25C16.5002 28.25 16.4065 28.2031 16.3127 28.0625L15.1409 26.6094C15.0471 26.5156 15.0002 26.375 15.0002 26.1875C15.0002 26.0469 15.094 25.9062 15.1877 25.8125L27.094 16.0156C27.469 15.6875 27.9377 15.5 28.5002 15.5C29.0159 15.5 29.4846 15.6875 29.9534 16.0156L34.1252 19.4844V16.0625C34.1252 15.9219 34.1721 15.7812 34.2659 15.6875C34.3596 15.5938 34.5002 15.5 34.6877 15.5H37.3127C37.4534 15.5 37.594 15.5938 37.6877 15.6875C37.7815 15.7812 37.8752 15.9219 37.8752 16.0625V22.5781L41.8127 25.8125Z" fill="#DFDEDE"/>
</g>
<defs>
<filter id="filter0_d" x="0.000244141" y="0.5" width="56.9531" height="51" filterUnits="userSpaceOnUse" color-interpolation-filters="sRGB">
<feFlood flood-opacity="0" result="BackgroundImageFix"/>
<feColorMatrix in="SourceAlpha" type="matrix" values="0 0 0 0 0 0 0 0 0 0 0 0 0 0 0 0 0 0 127 0"/>
<feOffset/>
<feGaussianBlur stdDeviation="7.5"/>
<feColorMatrix type="matrix" values="0 0 0 0 1 0 0 0 0 1 0 0 0 0 1 0 0 0 1 0"/>
<feBlend mode="normal" in2="BackgroundImageFix" result="effect1_dropShadow"/>
<feBlend mode="normal" in="SourceGraphic" in2="effect1_dropShadow" result="shape"/>
</filter>
</defs>
</svg>
