<svg width="50" height="50" viewBox="0 0 50 50" fill="none" xmlns="http://www.w3.org/2000/svg">
<path d="M25.0001 26C23.8751 26 22.8907 25.7656 21.9532 25.2031C21.0157 24.6875 20.3126 23.9844 19.797 23.0469C19.2345 22.1094 19.0001 21.125 19.0001 20C19.0001 18.9219 19.2345 17.9375 19.797 17C20.3126 16.0625 21.0157 15.3594 21.9532 14.7969C22.8907 14.2812 23.8751 14 25.0001 14C26.0782 14 27.0626 14.2812 28.0001 14.7969C28.9376 15.3594 29.6407 16.0625 30.2032 17C30.7189 17.9375 31.0001 18.9219 31.0001 20C31.0001 21.125 30.7189 22.1094 30.2032 23.0469C29.6407 23.9844 28.9376 24.6875 28.0001 25.2031C27.0626 25.7656 26.0782 26 25.0001 26ZM29.2189 27.5C30.3439 27.5 31.3751 27.7812 32.3595 28.3438C33.297 28.9062 34.0939 29.7031 34.6564 30.6406C35.2189 31.625 35.5001 32.6562 35.5001 33.7812V35.75C35.5001 36.4062 35.2657 36.9219 34.8439 37.3438C34.3751 37.8125 33.8595 38 33.2501 38H16.7501C16.0939 38 15.5782 37.8125 15.1564 37.3438C14.6876 36.9219 14.5001 36.4062 14.5001 35.75V33.7812C14.5001 32.6562 14.7814 31.625 15.3439 30.6406C15.9064 29.7031 16.6564 28.9062 17.6407 28.3438C18.5782 27.7812 19.6564 27.5 20.7814 27.5H21.5782C22.6564 28.0156 23.7814 28.25 25.0001 28.25C26.172 28.25 27.297 28.0156 28.422 27.5H29.2189Z" fill="#DFDEDE"/>
</svg>
