<svg width="17" height="16" viewBox="0 0 17 16" fill="none" xmlns="http://www.w3.org/2000/svg">
<path opacity="0.5" d="M16.2812 13.8438C16.4062 14 16.5 14.1875 16.5 14.375C16.5 14.5938 16.4062 14.7812 16.2812 14.9062L15.4062 15.7812C15.25 15.9375 15.0625 16 14.875 16C14.6562 16 14.4688 15.9375 14.3438 15.7812L11.2188 12.6562C11.0625 12.5312 11 12.3438 11 12.125V11.625C9.8125 12.5625 8.5 13 7 13C5.8125 13 4.71875 12.7188 3.71875 12.125C2.71875 11.5625 1.9375 10.7812 1.375 9.78125C0.78125 8.78125 0.5 7.6875 0.5 6.5C0.5 5.3125 0.78125 4.25 1.375 3.25C1.9375 2.25 2.71875 1.46875 3.71875 0.875C4.71875 0.3125 5.8125 0 7 0C8.1875 0 9.25 0.3125 10.25 0.875C11.25 1.46875 12.0312 2.25 12.625 3.25C13.1875 4.25 13.5 5.3125 13.5 6.5C13.5 8 13.0312 9.34375 12.125 10.5H12.625C12.8125 10.5 13 10.5938 13.1562 10.7188L16.2812 13.8438ZM7 10.5C7.71875 10.5 8.375 10.3438 9 9.96875C9.625 9.625 10.0938 9.15625 10.4688 8.53125C10.8125 7.90625 11 7.25 11 6.5C11 5.78125 10.8125 5.125 10.4688 4.5C10.0938 3.875 9.625 3.40625 9 3.03125C8.375 2.6875 7.71875 2.5 7 2.5C6.25 2.5 5.59375 2.6875 4.96875 3.03125C4.34375 3.40625 3.875 3.875 3.53125 4.5C3.15625 5.125 3 5.78125 3 6.5C3 7.25 3.15625 7.90625 3.53125 8.53125C3.875 9.15625 4.34375 9.625 4.96875 9.96875C5.59375 10.3438 6.25 10.5 7 10.5Z" fill="#999999"/>
</svg>
